<mxfile host="app.diagrams.net" agent="Mozilla/5.0 (Windows NT 10.0; Win64; x64) AppleWebKit/537.36 (KHTML, like Gecko) Chrome/130.0.0.0 Safari/537.36" version="24.9.0">
  <diagram name="Page-1" id="b20Qhw7FhkVzX8Fbugi0">
    <mxGraphModel dx="1500" dy="796" grid="1" gridSize="10" guides="1" tooltips="1" connect="1" arrows="1" fold="1" page="1" pageScale="1" pageWidth="850" pageHeight="1100" math="0" shadow="0">
      <root>
        <mxCell id="0" />
        <mxCell id="1" parent="0" />
        <mxCell id="vtm2nRPaWKQbJtNB99SM-3" value="port 7860" style="edgeStyle=orthogonalEdgeStyle;rounded=0;orthogonalLoop=1;jettySize=auto;html=1;exitX=0.25;exitY=0;exitDx=0;exitDy=0;" edge="1" parent="1" source="vtm2nRPaWKQbJtNB99SM-1">
          <mxGeometry relative="1" as="geometry">
            <mxPoint x="147.14285714285734" y="200" as="targetPoint" />
          </mxGeometry>
        </mxCell>
        <mxCell id="vtm2nRPaWKQbJtNB99SM-1" value="agent&lt;br&gt;langflowai/langflow:v1.1.0&lt;br&gt;&lt;div&gt;docker container&lt;/div&gt;" style="whiteSpace=wrap;html=1;aspect=fixed;" vertex="1" parent="1">
          <mxGeometry x="100" y="320" width="190" height="190" as="geometry" />
        </mxCell>
        <mxCell id="vtm2nRPaWKQbJtNB99SM-4" value="&lt;div&gt;user&lt;/div&gt;web brswer" style="whiteSpace=wrap;html=1;aspect=fixed;" vertex="1" parent="1">
          <mxGeometry x="110" y="120" width="80" height="80" as="geometry" />
        </mxCell>
        <mxCell id="vtm2nRPaWKQbJtNB99SM-5" value="data base&amp;nbsp;&lt;div&gt;chromadb/chroma:0.4.24&lt;div&gt;docker container&lt;/div&gt;&lt;/div&gt;" style="whiteSpace=wrap;html=1;aspect=fixed;" vertex="1" parent="1">
          <mxGeometry x="360" y="320" width="180" height="180" as="geometry" />
        </mxCell>
        <mxCell id="vtm2nRPaWKQbJtNB99SM-8" value="S3&lt;div&gt;minio/minio&lt;/div&gt;&lt;div&gt;docker container&lt;/div&gt;" style="whiteSpace=wrap;html=1;aspect=fixed;" vertex="1" parent="1">
          <mxGeometry x="570" y="320" width="180" height="180" as="geometry" />
        </mxCell>
      </root>
    </mxGraphModel>
  </diagram>
</mxfile>
